{
  "asset": {
    "version": "2.0",
    "generator": "THREE.GLTFExporter"
  },
  "scenes": [
    {
      "nodes": [
        3
      ],
      "name": "Scene"
    }
  ],
  "scene": 0,
  "nodes": [
    {
      "matrix": [
        1,
        0,
        0,
        0,
        0,
        1,
        0,
        0,
        0,
        0,
        1,
        0,
        -0.1032729214828636,
        0.3289941083885495,
        0,
        1
      ],
      "name": "Circle",
      "mesh": 0
    },
    {
      "matrix": [
        1,
        0,
        0,
        0,
        0,
        1,
        0,
        0,
        0,
        0,
        1,
        0,
        -1.567279590352456,
        0,
        0,
        1
      ],
      "name": "Cube.006_Cube.007",
      "mesh": 1
    },
    {
      "name": "Sphere_Sphere.002",
      "mesh": 2
    },
    {
      "matrix": [
        1,
        0,
        0,
        0,
        0,
        1,
        0,
        0,
        0,
        0,
        1,
        0,
        1.2284739442429142,
        0,
        0.3675834774117117,
        1
      ],
      "name": "Air_Balloon.obj",
      "children": [
        0,
        1,
        2
      ]
    }
  ],
  "bufferViews": [
    {
      "buffer": 0,
      "byteOffset": 0,
      "byteLength": 475776,
      "target": 34962,
      "byteStride": 12
    },
    {
      "buffer": 0,
      "byteOffset": 475776,
      "byteLength": 475776,
      "target": 34962,
      "byteStride": 12
    },
    {
      "buffer": 0,
      "byteOffset": 951552,
      "byteLength": 12768,
      "target": 34963
    },
    {
      "buffer": 0,
      "byteOffset": 964320,
      "byteLength": 12192,
      "target": 34963
    },
    {
      "buffer": 0,
      "byteOffset": 976512,
      "byteLength": 24192,
      "target": 34963
    },
    {
      "buffer": 0,
      "byteOffset": 1000704,
      "byteLength": 30144,
      "target": 34963
    },
    {
      "buffer": 0,
      "byteOffset": 1030848,
      "byteLength": 41472,
      "target": 34962,
      "byteStride": 12
    },
    {
      "buffer": 0,
      "byteOffset": 1072320,
      "byteLength": 41472,
      "target": 34962,
      "byteStride": 12
    },
    {
      "buffer": 0,
      "byteOffset": 1113792,
      "byteLength": 36000,
      "target": 34962,
      "byteStride": 12
    },
    {
      "buffer": 0,
      "byteOffset": 1149792,
      "byteLength": 36000,
      "target": 34962,
      "byteStride": 12
    },
    {
      "buffer": 0,
      "byteOffset": 1185792,
      "byteLength": 24000,
      "target": 34962,
      "byteStride": 8
    },
    {
      "buffer": 0,
      "byteOffset": 1209792,
      "byteLength": 1632,
      "target": 34963
    },
    {
      "buffer": 0,
      "byteOffset": 1211424,
      "byteLength": 1584,
      "target": 34963
    },
    {
      "buffer": 0,
      "byteOffset": 1213008,
      "byteLength": 1440,
      "target": 34963
    },
    {
      "buffer": 0,
      "byteOffset": 1214448,
      "byteLength": 1344,
      "target": 34963
    }
  ],
  "buffers": [
    {
      "byteLength": 1215792,
      "uri": "data:application/octet-stream;base64,"
    }
  ],
  "accessors": [
    {
      "bufferView": 0,
      "componentType": 5126,
      "count": 39648,
      "max": [
        0.7664849758148193,
        4.38573694229126,
        0.7845309972763062
      ],
      "min": [
        -0.7664110064506531,
        0.424903005361557,
        -0.7845309972763062
      ],
      "type": "VEC3"
    },
    {
      "bufferView": 1,
      "componentType": 5126,
      "count": 39648,
      "max": [
        1,
        1,
        1
      ],
      "min": [
        -1,
        -1,
        -1
      ],
      "type": "VEC3"
    },
    {
      "bufferView": 2,
      "componentType": 5123,
      "count": 6384,
      "max": [
        6383
      ],
      "min": [
        0
      ],
      "type": "SCALAR"
    },
    {
      "bufferView": 3,
      "componentType": 5123,
      "count": 6096,
      "max": [
        12479
      ],
      "min": [
        6384
      ],
      "type": "SCALAR"
    },
    {
      "bufferView": 4,
      "componentType": 5123,
      "count": 12096,
      "max": [
        24575
      ],
      "min": [
        12480
      ],
      "type": "SCALAR"
    },
    {
      "bufferView": 5,
      "componentType": 5123,
      "count": 15072,
      "max": [
        39647
      ],
      "min": [
        24576
      ],
      "type": "SCALAR"
    },
    {
      "bufferView": 6,
      "componentType": 5126,
      "count": 3456,
      "max": [
        0.746554970741272,
        1.9661569595336914,
        0.24910199642181396
      ],
      "min": [
        -0.7449910044670105,
        0.4315980076789856,
        -0.26020801067352295
      ],
      "type": "VEC3"
    },
    {
      "bufferView": 7,
      "componentType": 5126,
      "count": 3456,
      "max": [
        1,
        1,
        1
      ],
      "min": [
        -1,
        -1,
        -1
      ],
      "type": "VEC3"
    },
    {
      "bufferView": 8,
      "componentType": 5126,
      "count": 3000,
      "max": [
        11.210816383361816,
        33.58893585205078,
        11.211365699768066
      ],
      "min": [
        -11.210770606994629,
        4.279653072357178,
        -11.210220336914062
      ],
      "type": "VEC3"
    },
    {
      "bufferView": 9,
      "componentType": 5126,
      "count": 3000,
      "max": [
        1,
        1,
        1
      ],
      "min": [
        -1,
        -0.6100999712944031,
        -1
      ],
      "type": "VEC3"
    },
    {
      "bufferView": 10,
      "componentType": 5126,
      "count": 3000,
      "max": [
        0.5862089991569519,
        0.6795939803123474
      ],
      "min": [
        0.413769006729126,
        0.46116599440574646
      ],
      "type": "VEC2"
    },
    {
      "bufferView": 11,
      "componentType": 5123,
      "count": 816,
      "max": [
        815
      ],
      "min": [
        0
      ],
      "type": "SCALAR"
    },
    {
      "bufferView": 12,
      "componentType": 5123,
      "count": 792,
      "max": [
        1607
      ],
      "min": [
        816
      ],
      "type": "SCALAR"
    },
    {
      "bufferView": 13,
      "componentType": 5123,
      "count": 720,
      "max": [
        2327
      ],
      "min": [
        1608
      ],
      "type": "SCALAR"
    },
    {
      "bufferView": 14,
      "componentType": 5123,
      "count": 672,
      "max": [
        2999
      ],
      "min": [
        2328
      ],
      "type": "SCALAR"
    }
  ],
  "materials": [
    {
      "pbrMetallicRoughness": {
        "metallicFactor": 0.5,
        "roughnessFactor": 0.5
      },
      "doubleSided": true,
      "name": "White"
    },
    {
      "pbrMetallicRoughness": {
        "baseColorFactor": [
          0.23137254901960785,
          0.23137254901960785,
          0.23137254901960785,
          1
        ],
        "metallicFactor": 0.5,
        "roughnessFactor": 0.5
      },
      "name": "Black"
    },
    {
      "pbrMetallicRoughness": {
        "metallicFactor": 0.5,
        "roughnessFactor": 0.5
      },
      "doubleSided": true,
      "name": "Tan"
    },
    {
      "pbrMetallicRoughness": {
        "baseColorFactor": [
          0,
          0,
          0,
          1
        ],
        "metallicFactor": 0.5,
        "roughnessFactor": 0.5
      },
      "doubleSided": true,
      "name": "JetBlack"
    },
    {
      "pbrMetallicRoughness": {
        "baseColorFactor": [
          1,
          0,
          0,
          1
        ],
        "metallicFactor": 0.5,
        "roughnessFactor": 0.5
      }
    },
    {
      "pbrMetallicRoughness": {
        "baseColorFactor": [
          0.7333333333333333,
          0.23921568627450981,
          0,
          1
        ],
        "metallicFactor": 0.5,
        "roughnessFactor": 0.5
      },
      "emissiveFactor": [
        0.7529411764705882,
        0.7529411764705882,
        0.7529411764705882
      ],
      "doubleSided": true,
      "name": "Yellow"
    },
    {
      "pbrMetallicRoughness": {
        "baseColorFactor": [
          0,
          0,
          0,
          1
        ],
        "metallicFactor": 0.5,
        "roughnessFactor": 0.5
      },
      "name": "Black"
    },
    {
      "pbrMetallicRoughness": {
        "baseColorFactor": [
          1,
          0.5019607843137255,
          0.5019607843137255,
          1
        ],
        "metallicFactor": 0.5,
        "roughnessFactor": 0.5
      },
      "name": "Red"
    },
    {
      "pbrMetallicRoughness": {
        "baseColorFactor": [
          1,
          0.5019607843137255,
          0,
          1
        ],
        "metallicFactor": 0.5,
        "roughnessFactor": 0.5
      },
      "name": "Orange"
    }
  ],
  "meshes": [
    {
      "primitives": [
        {
          "mode": 4,
          "attributes": {
            "POSITION": 0,
            "NORMAL": 1
          },
          "indices": 2,
          "material": 0
        },
        {
          "mode": 4,
          "attributes": {
            "POSITION": 0,
            "NORMAL": 1
          },
          "indices": 3,
          "material": 1
        },
        {
          "mode": 4,
          "attributes": {
            "POSITION": 0,
            "NORMAL": 1
          },
          "indices": 4,
          "material": 2
        },
        {
          "mode": 4,
          "attributes": {
            "POSITION": 0,
            "NORMAL": 1
          },
          "indices": 5,
          "material": 3
        }
      ]
    },
    {
      "primitives": [
        {
          "mode": 4,
          "attributes": {
            "POSITION": 6,
            "NORMAL": 7
          },
          "material": 4
        }
      ]
    },
    {
      "primitives": [
        {
          "mode": 4,
          "attributes": {
            "POSITION": 8,
            "NORMAL": 9,
            "TEXCOORD_0": 10
          },
          "indices": 11,
          "material": 5
        },
        {
          "mode": 4,
          "attributes": {
            "POSITION": 8,
            "NORMAL": 9,
            "TEXCOORD_0": 10
          },
          "indices": 12,
          "material": 6
        },
        {
          "mode": 4,
          "attributes": {
            "POSITION": 8,
            "NORMAL": 9,
            "TEXCOORD_0": 10
          },
          "indices": 13,
          "material": 7
        },
        {
          "mode": 4,
          "attributes": {
            "POSITION": 8,
            "NORMAL": 9,
            "TEXCOORD_0": 10
          },
          "indices": 14,
          "material": 8
        }
      ]
    }
  ]
}